<svg width="91" height="20" viewBox="0 0 91 20" fill="none" xmlns="http://www.w3.org/2000/svg">
<path d="M0.76 15.5V0.599999H2.16L7.76 8.72H6.98L12.56 0.599999H13.96V15.5H12.36V2.76L12.88 2.96L7.4 10.9H7.32L1.86 2.96L2.36 2.76V15.5H0.76ZM22.1388 15.74C21.1388 15.74 20.2321 15.5 19.4188 15.02C18.6188 14.5267 17.9854 13.8533 17.5188 13C17.0521 12.1467 16.8188 11.18 16.8188 10.1C16.8188 9.02 17.0454 8.06667 17.4988 7.24C17.9521 6.4 18.5654 5.74 19.3388 5.26C20.1254 4.78 21.0054 4.54 21.9788 4.54C22.7521 4.54 23.4388 4.68667 24.0388 4.98C24.6521 5.26 25.1721 5.64667 25.5988 6.14C26.0254 6.62 26.3521 7.16667 26.5788 7.78C26.8054 8.38 26.9188 9 26.9188 9.64C26.9188 9.77333 26.9121 9.92667 26.8988 10.1C26.8854 10.26 26.8654 10.4267 26.8388 10.6H17.7788V9.2H25.9788L25.2588 9.8C25.3788 9.06667 25.2921 8.41333 24.9988 7.84C24.7188 7.25333 24.3121 6.79333 23.7788 6.46C23.2454 6.11333 22.6454 5.94 21.9788 5.94C21.3121 5.94 20.6921 6.11333 20.1188 6.46C19.5588 6.80667 19.1188 7.29333 18.7988 7.92C18.4788 8.53333 18.3521 9.26667 18.4188 10.12C18.3521 10.9733 18.4854 11.72 18.8188 12.36C19.1654 12.9867 19.6321 13.4733 20.2188 13.82C20.8188 14.1667 21.4588 14.34 22.1388 14.34C22.9254 14.34 23.5854 14.1533 24.1188 13.78C24.6521 13.4067 25.0854 12.94 25.4188 12.38L26.6988 13.06C26.4854 13.54 26.1588 13.9867 25.7188 14.4C25.2788 14.8 24.7521 15.1267 24.1388 15.38C23.5388 15.62 22.8721 15.74 22.1388 15.74ZM33.6634 15.62C32.7034 15.62 31.9634 15.34 31.4434 14.78C30.9234 14.22 30.6634 13.42 30.6634 12.38V6.28H28.6834V4.78H29.1834C29.6368 4.78 29.9968 4.63333 30.2634 4.34C30.5301 4.03333 30.6634 3.65333 30.6634 3.2V2.3H32.1634V4.78H34.5234V6.28H32.1634V12.38C32.1634 12.74 32.2168 13.06 32.3234 13.34C32.4301 13.6067 32.6101 13.82 32.8634 13.98C33.1301 14.14 33.4834 14.22 33.9234 14.22C34.0301 14.22 34.1568 14.2133 34.3034 14.2C34.4501 14.1867 34.5768 14.1733 34.6834 14.16V15.5C34.5234 15.54 34.3434 15.5667 34.1434 15.58C33.9434 15.6067 33.7834 15.62 33.6634 15.62ZM40.222 15.74C39.542 15.74 38.9354 15.6133 38.402 15.36C37.8687 15.0933 37.4487 14.7333 37.142 14.28C36.8354 13.8267 36.682 13.3067 36.682 12.72C36.682 12.16 36.802 11.6533 37.042 11.2C37.282 10.7333 37.6554 10.34 38.162 10.02C38.6687 9.7 39.3154 9.47333 40.102 9.34L44.302 8.64V10L40.462 10.64C39.6887 10.7733 39.1287 11.02 38.782 11.38C38.4487 11.74 38.282 12.1667 38.282 12.66C38.282 13.14 38.4687 13.5467 38.842 13.88C39.2287 14.2133 39.722 14.38 40.322 14.38C41.0554 14.38 41.6954 14.2267 42.242 13.92C42.7887 13.6 43.2154 13.1733 43.522 12.64C43.8287 12.1067 43.982 11.5133 43.982 10.86V8.14C43.982 7.5 43.7487 6.98 43.282 6.58C42.8154 6.18 42.2087 5.98 41.462 5.98C40.8087 5.98 40.2354 6.14667 39.742 6.48C39.2487 6.8 38.882 7.22 38.642 7.74L37.282 7C37.482 6.54667 37.7954 6.13333 38.222 5.76C38.662 5.38667 39.162 5.09333 39.722 4.88C40.282 4.65333 40.862 4.54 41.462 4.54C42.2487 4.54 42.942 4.69333 43.542 5C44.1554 5.30667 44.6287 5.73333 44.962 6.28C45.3087 6.81333 45.482 7.43333 45.482 8.14V15.5H43.982V13.36L44.202 13.58C44.0154 13.98 43.722 14.3467 43.322 14.68C42.9354 15 42.4754 15.26 41.942 15.46C41.422 15.6467 40.8487 15.74 40.222 15.74ZM48.3473 15.5V0.599999H54.6473C55.674 0.599999 56.554 0.773332 57.2873 1.12C58.0207 1.46667 58.5807 1.96667 58.9673 2.62C59.354 3.26 59.5473 4.04 59.5473 4.96C59.5473 5.61333 59.3673 6.24 59.0073 6.84C58.6473 7.42667 58.054 7.92 57.2273 8.32V6.8C58.014 7.10667 58.6207 7.47333 59.0473 7.9C59.474 8.32667 59.7673 8.79333 59.9273 9.3C60.0873 9.79333 60.1673 10.3133 60.1673 10.86C60.1673 12.3267 59.6807 13.4667 58.7073 14.28C57.734 15.0933 56.3807 15.5 54.6473 15.5H48.3473ZM51.4473 12.8H55.0073C55.634 12.8 56.134 12.62 56.5073 12.26C56.8807 11.9 57.0673 11.4333 57.0673 10.86C57.0673 10.2733 56.8807 9.8 56.5073 9.44C56.134 9.08 55.634 8.9 55.0073 8.9H51.4473V12.8ZM51.4473 6.2H54.8673C55.3473 6.2 55.7273 6.06667 56.0073 5.8C56.3007 5.52 56.4473 5.15333 56.4473 4.7C56.4473 4.24667 56.3007 3.88667 56.0073 3.62C55.7273 3.34 55.3473 3.2 54.8673 3.2H51.4473V6.2ZM61.9359 15.5V0.359999H64.9359V15.5H61.9359ZM72.5513 15.74C71.4713 15.74 70.4846 15.4933 69.5913 15C68.7113 14.5067 68.0046 13.8333 67.4713 12.98C66.9513 12.1133 66.6912 11.1333 66.6912 10.04C66.6912 8.93333 66.9513 7.95333 67.4713 7.1C68.0046 6.24667 68.7113 5.57333 69.5913 5.08C70.4846 4.58667 71.4713 4.34 72.5513 4.34C73.6313 4.34 74.6113 4.58667 75.4913 5.08C76.3713 5.57333 77.0713 6.24667 77.5913 7.1C78.1246 7.95333 78.3913 8.93333 78.3913 10.04C78.3913 11.1333 78.1246 12.1133 77.5913 12.98C77.0713 13.8333 76.3713 14.5067 75.4913 15C74.6113 15.4933 73.6313 15.74 72.5513 15.74ZM72.5513 13.04C73.0979 13.04 73.5713 12.9133 73.9713 12.66C74.3846 12.4067 74.7046 12.0533 74.9313 11.6C75.1713 11.1467 75.2913 10.6267 75.2913 10.04C75.2913 9.45333 75.1713 8.94 74.9313 8.5C74.7046 8.04667 74.3846 7.69333 73.9713 7.44C73.5713 7.17333 73.0979 7.04 72.5513 7.04C72.0046 7.04 71.5246 7.17333 71.1113 7.44C70.6979 7.69333 70.3713 8.04667 70.1313 8.5C69.9046 8.94 69.7913 9.45333 69.7913 10.04C69.7913 10.6267 69.9046 11.1467 70.1313 11.6C70.3713 12.0533 70.6979 12.4067 71.1113 12.66C71.5246 12.9133 72.0046 13.04 72.5513 13.04ZM85.5186 19.9C84.6786 19.9 83.8986 19.76 83.1786 19.48C82.4586 19.2 81.8386 18.8067 81.3186 18.3C80.8119 17.8067 80.4453 17.22 80.2186 16.54L82.9986 15.56C83.1453 16.0667 83.4453 16.4667 83.8986 16.76C84.3519 17.0533 84.8919 17.2 85.5186 17.2C86.0119 17.2 86.4386 17.1067 86.7986 16.92C87.1586 16.7467 87.4319 16.4867 87.6186 16.14C87.8186 15.7933 87.9186 15.3867 87.9186 14.92V12.42L88.4986 13.14C88.1253 13.7533 87.6453 14.2133 87.0586 14.52C86.4719 14.8133 85.7853 14.96 84.9986 14.96C83.9853 14.96 83.0786 14.7333 82.2786 14.28C81.4786 13.8133 80.8519 13.18 80.3986 12.38C79.9453 11.5667 79.7186 10.6467 79.7186 9.62C79.7186 8.59333 79.9453 7.68667 80.3986 6.9C80.8519 6.1 81.4719 5.47333 82.2586 5.02C83.0453 4.56667 83.9386 4.34 84.9386 4.34C85.7253 4.34 86.4119 4.5 86.9986 4.82C87.5853 5.12667 88.0853 5.6 88.4986 6.24L88.1186 6.96V4.58H90.9186V14.92C90.9186 15.88 90.6853 16.7333 90.2186 17.48C89.7519 18.24 89.1119 18.8333 88.2986 19.26C87.4986 19.6867 86.5719 19.9 85.5186 19.9ZM85.4186 12.24C85.9253 12.24 86.3653 12.1333 86.7386 11.92C87.1119 11.7067 87.3986 11.4067 87.5986 11.02C87.8119 10.6333 87.9186 10.18 87.9186 9.66C87.9186 9.14 87.8119 8.68667 87.5986 8.3C87.3853 7.9 87.0919 7.59333 86.7186 7.38C86.3453 7.15333 85.9119 7.04 85.4186 7.04C84.9119 7.04 84.4586 7.15333 84.0586 7.38C83.6719 7.59333 83.3653 7.9 83.1386 8.3C82.9253 8.68667 82.8186 9.14 82.8186 9.66C82.8186 10.1667 82.9253 10.6133 83.1386 11C83.3653 11.3867 83.6719 11.6933 84.0586 11.92C84.4586 12.1333 84.9119 12.24 85.4186 12.24Z" fill="#141624"/>
</svg>
