<svg width="173" height="55" viewBox="0 0 173 55" fill="none" xmlns="http://www.w3.org/2000/svg">
<path d="M1.76 22.5V7.6H3.16L8.76 15.72H7.98L13.56 7.6H14.96V22.5H13.36V9.76L13.88 9.96L8.4 17.9H8.32L2.86 9.96L3.36 9.76V22.5H1.76ZM23.1388 22.74C22.1388 22.74 21.2321 22.5 20.4188 22.02C19.6188 21.5267 18.9854 20.8533 18.5188 20C18.0521 19.1467 17.8188 18.18 17.8188 17.1C17.8188 16.02 18.0454 15.0667 18.4988 14.24C18.9521 13.4 19.5654 12.74 20.3388 12.26C21.1254 11.78 22.0054 11.54 22.9788 11.54C23.7521 11.54 24.4388 11.6867 25.0388 11.98C25.6521 12.26 26.1721 12.6467 26.5988 13.14C27.0254 13.62 27.3521 14.1667 27.5788 14.78C27.8054 15.38 27.9188 16 27.9188 16.64C27.9188 16.7733 27.9121 16.9267 27.8988 17.1C27.8854 17.26 27.8654 17.4267 27.8388 17.6H18.7788V16.2H26.9788L26.2588 16.8C26.3788 16.0667 26.2921 15.4133 25.9988 14.84C25.7188 14.2533 25.3121 13.7933 24.7788 13.46C24.2454 13.1133 23.6454 12.94 22.9788 12.94C22.3121 12.94 21.6921 13.1133 21.1188 13.46C20.5588 13.8067 20.1188 14.2933 19.7988 14.92C19.4788 15.5333 19.3521 16.2667 19.4188 17.12C19.3521 17.9733 19.4854 18.72 19.8188 19.36C20.1654 19.9867 20.6321 20.4733 21.2188 20.82C21.8188 21.1667 22.4588 21.34 23.1388 21.34C23.9254 21.34 24.5854 21.1533 25.1188 20.78C25.6521 20.4067 26.0854 19.94 26.4188 19.38L27.6988 20.06C27.4854 20.54 27.1588 20.9867 26.7188 21.4C26.2788 21.8 25.7521 22.1267 25.1388 22.38C24.5388 22.62 23.8721 22.74 23.1388 22.74ZM34.6634 22.62C33.7034 22.62 32.9634 22.34 32.4434 21.78C31.9234 21.22 31.6634 20.42 31.6634 19.38V13.28H29.6834V11.78H30.1834C30.6368 11.78 30.9968 11.6333 31.2634 11.34C31.5301 11.0333 31.6634 10.6533 31.6634 10.2V9.3H33.1634V11.78H35.5234V13.28H33.1634V19.38C33.1634 19.74 33.2168 20.06 33.3234 20.34C33.4301 20.6067 33.6101 20.82 33.8634 20.98C34.1301 21.14 34.4834 21.22 34.9234 21.22C35.0301 21.22 35.1568 21.2133 35.3034 21.2C35.4501 21.1867 35.5768 21.1733 35.6834 21.16V22.5C35.5234 22.54 35.3434 22.5667 35.1434 22.58C34.9434 22.6067 34.7834 22.62 34.6634 22.62ZM41.222 22.74C40.542 22.74 39.9354 22.6133 39.402 22.36C38.8687 22.0933 38.4487 21.7333 38.142 21.28C37.8354 20.8267 37.682 20.3067 37.682 19.72C37.682 19.16 37.802 18.6533 38.042 18.2C38.282 17.7333 38.6554 17.34 39.162 17.02C39.6687 16.7 40.3154 16.4733 41.102 16.34L45.302 15.64V17L41.462 17.64C40.6887 17.7733 40.1287 18.02 39.782 18.38C39.4487 18.74 39.282 19.1667 39.282 19.66C39.282 20.14 39.4687 20.5467 39.842 20.88C40.2287 21.2133 40.722 21.38 41.322 21.38C42.0554 21.38 42.6954 21.2267 43.242 20.92C43.7887 20.6 44.2154 20.1733 44.522 19.64C44.8287 19.1067 44.982 18.5133 44.982 17.86V15.14C44.982 14.5 44.7487 13.98 44.282 13.58C43.8154 13.18 43.2087 12.98 42.462 12.98C41.8087 12.98 41.2354 13.1467 40.742 13.48C40.2487 13.8 39.882 14.22 39.642 14.74L38.282 14C38.482 13.5467 38.7954 13.1333 39.222 12.76C39.662 12.3867 40.162 12.0933 40.722 11.88C41.282 11.6533 41.862 11.54 42.462 11.54C43.2487 11.54 43.942 11.6933 44.542 12C45.1554 12.3067 45.6287 12.7333 45.962 13.28C46.3087 13.8133 46.482 14.4333 46.482 15.14V22.5H44.982V20.36L45.202 20.58C45.0154 20.98 44.722 21.3467 44.322 21.68C43.9354 22 43.4754 22.26 42.942 22.46C42.422 22.6467 41.8487 22.74 41.222 22.74ZM49.3473 22.5V7.6H55.6473C56.674 7.6 57.554 7.77333 58.2873 8.12C59.0207 8.46667 59.5807 8.96667 59.9673 9.62C60.354 10.26 60.5473 11.04 60.5473 11.96C60.5473 12.6133 60.3673 13.24 60.0073 13.84C59.6473 14.4267 59.054 14.92 58.2273 15.32V13.8C59.014 14.1067 59.6207 14.4733 60.0473 14.9C60.474 15.3267 60.7673 15.7933 60.9273 16.3C61.0873 16.7933 61.1673 17.3133 61.1673 17.86C61.1673 19.3267 60.6807 20.4667 59.7073 21.28C58.734 22.0933 57.3807 22.5 55.6473 22.5H49.3473ZM52.4473 19.8H56.0073C56.634 19.8 57.134 19.62 57.5073 19.26C57.8807 18.9 58.0673 18.4333 58.0673 17.86C58.0673 17.2733 57.8807 16.8 57.5073 16.44C57.134 16.08 56.634 15.9 56.0073 15.9H52.4473V19.8ZM52.4473 13.2H55.8673C56.3473 13.2 56.7273 13.0667 57.0073 12.8C57.3007 12.52 57.4473 12.1533 57.4473 11.7C57.4473 11.2467 57.3007 10.8867 57.0073 10.62C56.7273 10.34 56.3473 10.2 55.8673 10.2H52.4473V13.2ZM62.9359 22.5V7.36H65.9359V22.5H62.9359ZM73.5513 22.74C72.4713 22.74 71.4846 22.4933 70.5913 22C69.7113 21.5067 69.0046 20.8333 68.4713 19.98C67.9513 19.1133 67.6912 18.1333 67.6912 17.04C67.6912 15.9333 67.9513 14.9533 68.4713 14.1C69.0046 13.2467 69.7113 12.5733 70.5913 12.08C71.4846 11.5867 72.4713 11.34 73.5513 11.34C74.6313 11.34 75.6113 11.5867 76.4913 12.08C77.3713 12.5733 78.0713 13.2467 78.5913 14.1C79.1246 14.9533 79.3913 15.9333 79.3913 17.04C79.3913 18.1333 79.1246 19.1133 78.5913 19.98C78.0713 20.8333 77.3713 21.5067 76.4913 22C75.6113 22.4933 74.6313 22.74 73.5513 22.74ZM73.5513 20.04C74.0979 20.04 74.5713 19.9133 74.9713 19.66C75.3846 19.4067 75.7046 19.0533 75.9313 18.6C76.1713 18.1467 76.2913 17.6267 76.2913 17.04C76.2913 16.4533 76.1713 15.94 75.9313 15.5C75.7046 15.0467 75.3846 14.6933 74.9713 14.44C74.5713 14.1733 74.0979 14.04 73.5513 14.04C73.0046 14.04 72.5246 14.1733 72.1113 14.44C71.6979 14.6933 71.3713 15.0467 71.1313 15.5C70.9046 15.94 70.7913 16.4533 70.7913 17.04C70.7913 17.6267 70.9046 18.1467 71.1313 18.6C71.3713 19.0533 71.6979 19.4067 72.1113 19.66C72.5246 19.9133 73.0046 20.04 73.5513 20.04ZM86.5186 26.9C85.6786 26.9 84.8986 26.76 84.1786 26.48C83.4586 26.2 82.8386 25.8067 82.3186 25.3C81.8119 24.8067 81.4453 24.22 81.2186 23.54L83.9986 22.56C84.1453 23.0667 84.4453 23.4667 84.8986 23.76C85.3519 24.0533 85.8919 24.2 86.5186 24.2C87.0119 24.2 87.4386 24.1067 87.7986 23.92C88.1586 23.7467 88.4319 23.4867 88.6186 23.14C88.8186 22.7933 88.9186 22.3867 88.9186 21.92V19.42L89.4986 20.14C89.1253 20.7533 88.6453 21.2133 88.0586 21.52C87.4719 21.8133 86.7853 21.96 85.9986 21.96C84.9853 21.96 84.0786 21.7333 83.2786 21.28C82.4786 20.8133 81.8519 20.18 81.3986 19.38C80.9453 18.5667 80.7186 17.6467 80.7186 16.62C80.7186 15.5933 80.9453 14.6867 81.3986 13.9C81.8519 13.1 82.4719 12.4733 83.2586 12.02C84.0453 11.5667 84.9386 11.34 85.9386 11.34C86.7253 11.34 87.4119 11.5 87.9986 11.82C88.5853 12.1267 89.0853 12.6 89.4986 13.24L89.1186 13.96V11.58H91.9186V21.92C91.9186 22.88 91.6853 23.7333 91.2186 24.48C90.7519 25.24 90.1119 25.8333 89.2986 26.26C88.4986 26.6867 87.5719 26.9 86.5186 26.9ZM86.4186 19.24C86.9253 19.24 87.3653 19.1333 87.7386 18.92C88.1119 18.7067 88.3986 18.4067 88.5986 18.02C88.8119 17.6333 88.9186 17.18 88.9186 16.66C88.9186 16.14 88.8119 15.6867 88.5986 15.3C88.3853 14.9 88.0919 14.5933 87.7186 14.38C87.3453 14.1533 86.9119 14.04 86.4186 14.04C85.9119 14.04 85.4586 14.1533 85.0586 14.38C84.6719 14.5933 84.3653 14.9 84.1386 15.3C83.9253 15.6867 83.8186 16.14 83.8186 16.66C83.8186 17.1667 83.9253 17.6133 84.1386 18C84.3653 18.3867 84.6719 18.6933 85.0586 18.92C85.4586 19.1333 85.9119 19.24 86.4186 19.24Z" fill="#141624"/>
<path d="M6.56 47.66C5.472 47.66 4.51733 47.42 3.696 46.94C2.87467 46.46 2.23467 45.8093 1.776 44.988C1.31733 44.1667 1.088 43.244 1.088 42.22C1.088 41.1853 1.31733 40.2627 1.776 39.452C2.23467 38.6307 2.87467 37.98 3.696 37.5C4.51733 37.02 5.472 36.78 6.56 36.78C7.648 36.78 8.60267 37.02 9.424 37.5C10.2453 37.98 10.8853 38.6307 11.344 39.452C11.8027 40.2627 12.032 41.1853 12.032 42.22C12.032 43.244 11.8027 44.1667 11.344 44.988C10.8853 45.8093 10.2453 46.46 9.424 46.94C8.60267 47.42 7.648 47.66 6.56 47.66ZM6.56 46.62C7.424 46.62 8.18133 46.428 8.832 46.044C9.48267 45.6493 9.98933 45.1213 10.352 44.46C10.7147 43.788 10.896 43.0413 10.896 42.22C10.896 41.3987 10.7147 40.6573 10.352 39.996C9.98933 39.324 9.48267 38.796 8.832 38.412C8.18133 38.0173 7.424 37.82 6.56 37.82C5.70667 37.82 4.94933 38.0173 4.288 38.412C3.63733 38.796 3.13067 39.324 2.768 39.996C2.40533 40.6573 2.224 41.3987 2.224 42.22C2.224 43.0413 2.40533 43.788 2.768 44.46C3.13067 45.1213 3.63733 45.6493 4.288 46.044C4.94933 46.428 5.70667 46.62 6.56 46.62ZM6.672 45.212C5.76533 45.212 5.05067 44.9507 4.528 44.428C4.016 43.8947 3.76 43.1693 3.76 42.252C3.76 41.3347 4.016 40.6147 4.528 40.092C5.05067 39.5587 5.76533 39.292 6.672 39.292C7.30133 39.292 7.824 39.4307 8.24 39.708C8.656 39.9747 8.96533 40.3427 9.168 40.812L8.24 41.276C8.10133 40.9347 7.904 40.6787 7.648 40.508C7.392 40.3373 7.06133 40.252 6.656 40.252C6.09067 40.252 5.64267 40.428 5.312 40.78C4.992 41.132 4.832 41.6227 4.832 42.252C4.832 42.8813 4.992 43.372 5.312 43.724C5.64267 44.076 6.09067 44.252 6.656 44.252C7.08267 44.252 7.43467 44.1667 7.712 43.996C8 43.8147 8.21333 43.5427 8.352 43.18L9.232 43.532C9.02933 44.0547 8.71467 44.4653 8.288 44.764C7.86133 45.0627 7.32267 45.212 6.672 45.212ZM28.0815 47.5H26.7215L25.6015 44.572H20.8175L19.6975 47.5H18.3535L22.4655 36.94H23.9855L28.0815 47.5ZM21.2815 43.372H25.1375L23.2015 38.172L21.2815 43.372ZM31.204 35.82V45.468C31.204 45.8733 31.2787 46.156 31.428 46.316C31.5773 46.4653 31.8173 46.54 32.148 46.54C32.3613 46.54 32.5373 46.524 32.676 46.492C32.8147 46.46 33.0013 46.4013 33.236 46.316L33.028 47.436C32.8573 47.5107 32.6707 47.564 32.468 47.596C32.2653 47.6387 32.0573 47.66 31.844 47.66C31.1933 47.66 30.708 47.484 30.388 47.132C30.0787 46.78 29.924 46.2413 29.924 45.516V35.82H31.204ZM36.0946 35.82V45.468C36.0946 45.8733 36.1693 46.156 36.3186 46.316C36.468 46.4653 36.708 46.54 37.0386 46.54C37.252 46.54 37.428 46.524 37.5666 46.492C37.7053 46.46 37.892 46.4013 38.1266 46.316L37.9186 47.436C37.748 47.5107 37.5613 47.564 37.3586 47.596C37.156 47.6387 36.948 47.66 36.7346 47.66C36.084 47.66 35.5986 47.484 35.2786 47.132C34.9693 46.78 34.8146 46.2413 34.8146 45.516V35.82H36.0946ZM48.8999 36.94C49.9772 36.94 50.8412 37.2173 51.4919 37.772C52.1425 38.3267 52.4679 39.0787 52.4679 40.028C52.4679 40.9773 52.1372 41.7187 51.4759 42.252C50.8252 42.7747 49.9612 43.036 48.8839 43.036L48.7719 43.116H46.1799V47.5H44.8999V36.94H48.8999ZM48.8839 41.916C49.6412 41.916 50.2012 41.7613 50.5639 41.452C50.9372 41.132 51.1239 40.6573 51.1239 40.028C51.1239 39.3987 50.9372 38.9293 50.5639 38.62C50.2012 38.3 49.6412 38.14 48.8839 38.14H46.1799V41.916H48.8839ZM49.6199 42.172L53.1079 47.5H51.5879L48.5479 42.876L49.6199 42.172ZM55.8624 37.964C55.5744 37.964 55.3397 37.8787 55.1584 37.708C54.9877 37.5267 54.9024 37.292 54.9024 37.004C54.9024 36.716 54.9877 36.4867 55.1584 36.316C55.3397 36.1347 55.5744 36.044 55.8624 36.044C56.1504 36.044 56.3797 36.1347 56.5504 36.316C56.7317 36.4867 56.8224 36.716 56.8224 37.004C56.8224 37.292 56.7317 37.5267 56.5504 37.708C56.3797 37.8787 56.1504 37.964 55.8624 37.964ZM56.5024 39.5V47.5H55.2224V39.5H56.5024ZM66.2084 38.028L66.4964 39.164C66.4857 39.164 66.4697 39.164 66.4484 39.164C66.427 39.164 66.4057 39.164 66.3844 39.164C65.8617 39.164 65.4564 39.2707 65.1684 39.484C64.891 39.6867 64.7524 40.0173 64.7524 40.476L63.9684 40.076C63.9684 39.66 64.0644 39.2973 64.2564 38.988C64.4484 38.6787 64.7097 38.444 65.0404 38.284C65.371 38.1133 65.7337 38.028 66.1284 38.028C66.139 38.028 66.1497 38.028 66.1604 38.028C66.1817 38.028 66.1977 38.028 66.2084 38.028ZM63.7764 46.476C64.5337 46.476 65.1257 46.652 65.5524 47.004C65.979 47.3453 66.1924 47.804 66.1924 48.38C66.1924 48.9027 66.0164 49.356 65.6644 49.74C65.323 50.124 64.859 50.4173 64.2724 50.62C63.6964 50.8333 63.0457 50.94 62.3204 50.94C61.0617 50.94 60.1177 50.7267 59.4884 50.3C58.8697 49.8733 58.5604 49.3613 58.5604 48.764C58.5604 48.3373 58.699 47.9533 58.9764 47.612C59.2644 47.2813 59.7444 47.0947 60.4164 47.052L60.3044 47.292C59.9417 47.196 59.6324 47.036 59.3764 46.812C59.131 46.5773 59.0084 46.2413 59.0084 45.804C59.0084 45.3667 59.1684 44.9933 59.4884 44.684C59.819 44.364 60.3044 44.1667 60.9444 44.092L61.7924 44.524H61.6324C61.1097 44.5773 60.7364 44.7107 60.5124 44.924C60.299 45.1267 60.1924 45.3507 60.1924 45.596C60.1924 45.8947 60.299 46.1187 60.5124 46.268C60.7364 46.4067 61.0457 46.476 61.4404 46.476H63.7764ZM62.3044 49.868C62.923 49.868 63.4297 49.804 63.8244 49.676C64.2297 49.548 64.5284 49.3827 64.7204 49.18C64.9124 48.9773 65.0084 48.7587 65.0084 48.524C65.0084 48.236 64.891 48.0067 64.6564 47.836C64.4324 47.6653 64.0217 47.58 63.4244 47.58H60.9604C60.619 47.58 60.331 47.6653 60.0964 47.836C59.8617 48.0173 59.7444 48.2627 59.7444 48.572C59.7444 48.9667 59.9684 49.2813 60.4164 49.516C60.875 49.7507 61.5044 49.868 62.3044 49.868ZM62.1924 39.34C62.8324 39.34 63.3977 39.4573 63.8884 39.692C64.3897 39.916 64.779 40.2307 65.0564 40.636C65.3337 41.0413 65.4724 41.5107 65.4724 42.044C65.4724 42.5667 65.3337 43.036 65.0564 43.452C64.779 43.8573 64.3897 44.1773 63.8884 44.412C63.3977 44.636 62.8324 44.748 62.1924 44.748C61.1364 44.748 60.3257 44.4973 59.7604 43.996C59.195 43.484 58.9124 42.8333 58.9124 42.044C58.9124 41.5107 59.051 41.0413 59.3284 40.636C59.6164 40.2307 60.0057 39.916 60.4964 39.692C60.987 39.4573 61.5524 39.34 62.1924 39.34ZM62.1924 40.38C61.6377 40.38 61.1737 40.5347 60.8004 40.844C60.427 41.1427 60.2404 41.5427 60.2404 42.044C60.2404 42.5347 60.427 42.9347 60.8004 43.244C61.1737 43.5533 61.6377 43.708 62.1924 43.708C62.747 43.708 63.211 43.5533 63.5844 43.244C63.9577 42.9347 64.1444 42.5347 64.1444 42.044C64.1444 41.5427 63.9577 41.1427 63.5844 40.844C63.211 40.5347 62.747 40.38 62.1924 40.38ZM67.988 47.5V35.82H69.268V40.7C69.5453 40.22 69.9133 39.8733 70.372 39.66C70.8307 39.4467 71.332 39.34 71.876 39.34C72.452 39.34 72.9747 39.452 73.444 39.676C73.9133 39.8893 74.2867 40.22 74.564 40.668C74.852 41.116 74.996 41.6867 74.996 42.38V47.5H73.716V42.828C73.716 41.9427 73.524 41.3293 73.14 40.988C72.7667 40.636 72.3027 40.46 71.748 40.46C71.364 40.46 70.98 40.5507 70.596 40.732C70.212 40.9133 69.892 41.212 69.636 41.628C69.3907 42.0333 69.268 42.5773 69.268 43.26V47.5H67.988ZM79.6729 37.228V45.292C79.6729 45.6867 79.7849 45.98 80.0089 46.172C80.2329 46.364 80.5209 46.46 80.8729 46.46C81.1822 46.46 81.4489 46.4067 81.6729 46.3C81.8969 46.1933 82.0995 46.0493 82.2809 45.868L82.7289 46.94C82.4835 47.164 82.1902 47.34 81.8489 47.468C81.5182 47.596 81.1342 47.66 80.6969 47.66C80.2915 47.66 79.9129 47.5907 79.5609 47.452C79.2089 47.3027 78.9262 47.0733 78.7129 46.764C78.5102 46.444 78.4035 46.028 78.3929 45.516V37.58L79.6729 37.228ZM82.5849 39.5V40.604H76.7929V39.5H82.5849ZM87.368 47.66C86.5893 47.66 85.8693 47.4947 85.208 47.164C84.5573 46.8333 84.056 46.364 83.704 45.756L84.792 44.972C85.0267 45.4627 85.368 45.8467 85.816 46.124C86.2747 46.4013 86.824 46.54 87.464 46.54C88.0293 46.54 88.472 46.4333 88.792 46.22C89.112 45.996 89.272 45.708 89.272 45.356C89.272 45.132 89.1973 44.9293 89.048 44.748C88.9093 44.556 88.6373 44.4173 88.232 44.332L86.312 43.932C85.5333 43.772 84.9733 43.5053 84.632 43.132C84.3013 42.7587 84.136 42.2947 84.136 41.74C84.136 41.3027 84.2587 40.9027 84.504 40.54C84.76 40.1773 85.1173 39.8893 85.576 39.676C86.0453 39.452 86.5947 39.34 87.224 39.34C88.0133 39.34 88.68 39.4947 89.224 39.804C89.768 40.1133 90.1733 40.5507 90.44 41.116L89.368 41.82C89.1867 41.3507 88.8933 41.0093 88.488 40.796C88.0827 40.572 87.6613 40.46 87.224 40.46C86.84 40.46 86.5093 40.5133 86.232 40.62C85.9653 40.7267 85.7573 40.876 85.608 41.068C85.4693 41.2493 85.4 41.4573 85.4 41.692C85.4 41.9267 85.48 42.1453 85.64 42.348C85.8 42.54 86.0987 42.6787 86.536 42.764L88.536 43.18C89.2827 43.3293 89.8053 43.5747 90.104 43.916C90.4027 44.2573 90.552 44.6733 90.552 45.164C90.552 45.6653 90.4187 46.108 90.152 46.492C89.8853 46.8653 89.512 47.1533 89.032 47.356C88.552 47.5587 87.9973 47.66 87.368 47.66ZM102.619 36.94C103.696 36.94 104.56 37.2173 105.211 37.772C105.861 38.3267 106.187 39.0787 106.187 40.028C106.187 40.9773 105.856 41.7187 105.195 42.252C104.544 42.7747 103.68 43.036 102.603 43.036L102.491 43.116H99.8986V47.5H98.6186V36.94H102.619ZM102.603 41.916C103.36 41.916 103.92 41.7613 104.283 41.452C104.656 41.132 104.843 40.6573 104.843 40.028C104.843 39.3987 104.656 38.9293 104.283 38.62C103.92 38.3 103.36 38.14 102.603 38.14H99.8986V41.916H102.603ZM103.339 42.172L106.827 47.5H105.307L102.267 42.876L103.339 42.172ZM112.098 47.66C111.34 47.66 110.663 47.4947 110.066 47.164C109.479 46.8333 109.02 46.3587 108.69 45.74C108.359 45.1107 108.194 44.364 108.194 43.5C108.194 42.636 108.359 41.8947 108.69 41.276C109.02 40.6467 109.474 40.1667 110.05 39.836C110.626 39.5053 111.282 39.34 112.018 39.34C112.764 39.34 113.399 39.5 113.922 39.82C114.455 40.14 114.86 40.5773 115.138 41.132C115.415 41.676 115.554 42.2893 115.554 42.972C115.554 43.1533 115.548 43.3187 115.538 43.468C115.527 43.6173 115.511 43.7507 115.49 43.868H109.026V42.732H114.93L114.274 42.86C114.274 42.092 114.06 41.5 113.634 41.084C113.218 40.668 112.668 40.46 111.986 40.46C111.463 40.46 111.01 40.5827 110.626 40.828C110.252 41.0627 109.959 41.4093 109.746 41.868C109.543 42.316 109.442 42.86 109.442 43.5C109.442 44.1293 109.548 44.6733 109.762 45.132C109.975 45.5907 110.274 45.9427 110.658 46.188C111.052 46.4227 111.522 46.54 112.066 46.54C112.652 46.54 113.127 46.428 113.49 46.204C113.863 45.98 114.162 45.676 114.386 45.292L115.394 45.884C115.191 46.2467 114.93 46.5613 114.61 46.828C114.3 47.0947 113.932 47.3027 113.506 47.452C113.09 47.5907 112.62 47.66 112.098 47.66ZM120.868 47.66C120.089 47.66 119.369 47.4947 118.708 47.164C118.057 46.8333 117.556 46.364 117.204 45.756L118.292 44.972C118.527 45.4627 118.868 45.8467 119.316 46.124C119.775 46.4013 120.324 46.54 120.964 46.54C121.529 46.54 121.972 46.4333 122.292 46.22C122.612 45.996 122.772 45.708 122.772 45.356C122.772 45.132 122.697 44.9293 122.548 44.748C122.409 44.556 122.137 44.4173 121.732 44.332L119.812 43.932C119.033 43.772 118.473 43.5053 118.132 43.132C117.801 42.7587 117.636 42.2947 117.636 41.74C117.636 41.3027 117.759 40.9027 118.004 40.54C118.26 40.1773 118.617 39.8893 119.076 39.676C119.545 39.452 120.095 39.34 120.724 39.34C121.513 39.34 122.18 39.4947 122.724 39.804C123.268 40.1133 123.673 40.5507 123.94 41.116L122.868 41.82C122.687 41.3507 122.393 41.0093 121.988 40.796C121.583 40.572 121.161 40.46 120.724 40.46C120.34 40.46 120.009 40.5133 119.732 40.62C119.465 40.7267 119.257 40.876 119.108 41.068C118.969 41.2493 118.9 41.4573 118.9 41.692C118.9 41.9267 118.98 42.1453 119.14 42.348C119.3 42.54 119.599 42.6787 120.036 42.764L122.036 43.18C122.783 43.3293 123.305 43.5747 123.604 43.916C123.903 44.2573 124.052 44.6733 124.052 45.164C124.052 45.6653 123.919 46.108 123.652 46.492C123.385 46.8653 123.012 47.1533 122.532 47.356C122.052 47.5587 121.497 47.66 120.868 47.66ZM129.77 47.66C129.012 47.66 128.335 47.4947 127.738 47.164C127.151 46.8333 126.692 46.3587 126.362 45.74C126.031 45.1107 125.866 44.364 125.866 43.5C125.866 42.636 126.031 41.8947 126.362 41.276C126.692 40.6467 127.146 40.1667 127.722 39.836C128.298 39.5053 128.954 39.34 129.69 39.34C130.436 39.34 131.071 39.5 131.594 39.82C132.127 40.14 132.532 40.5773 132.81 41.132C133.087 41.676 133.226 42.2893 133.226 42.972C133.226 43.1533 133.22 43.3187 133.21 43.468C133.199 43.6173 133.183 43.7507 133.161 43.868H126.698V42.732H132.602L131.946 42.86C131.946 42.092 131.732 41.5 131.306 41.084C130.89 40.668 130.34 40.46 129.658 40.46C129.135 40.46 128.682 40.5827 128.298 40.828C127.924 41.0627 127.631 41.4093 127.418 41.868C127.215 42.316 127.114 42.86 127.114 43.5C127.114 44.1293 127.22 44.6733 127.434 45.132C127.647 45.5907 127.946 45.9427 128.33 46.188C128.724 46.4227 129.194 46.54 129.738 46.54C130.324 46.54 130.799 46.428 131.162 46.204C131.535 45.98 131.834 45.676 132.058 45.292L133.066 45.884C132.863 46.2467 132.602 46.5613 132.282 46.828C131.972 47.0947 131.604 47.3027 131.178 47.452C130.762 47.5907 130.292 47.66 129.77 47.66ZM135.66 47.5V39.5H136.7L136.876 40.812C137.1 40.3213 137.425 39.9533 137.852 39.708C138.289 39.4627 138.817 39.34 139.436 39.34C139.575 39.34 139.724 39.3507 139.884 39.372C140.055 39.3933 140.199 39.436 140.316 39.5L140.092 40.668C139.975 40.6253 139.847 40.5933 139.708 40.572C139.569 40.5507 139.372 40.54 139.116 40.54C138.785 40.54 138.449 40.636 138.108 40.828C137.777 41.02 137.5 41.3133 137.276 41.708C137.052 42.092 136.94 42.5827 136.94 43.18V47.5H135.66ZM147.487 39.5H148.831L145.503 47.5H144.223L140.895 39.5H142.351L144.879 46.204L147.487 39.5ZM153.848 47.66C153.09 47.66 152.413 47.4947 151.816 47.164C151.229 46.8333 150.77 46.3587 150.44 45.74C150.109 45.1107 149.944 44.364 149.944 43.5C149.944 42.636 150.109 41.8947 150.44 41.276C150.77 40.6467 151.224 40.1667 151.8 39.836C152.376 39.5053 153.032 39.34 153.768 39.34C154.514 39.34 155.149 39.5 155.672 39.82C156.205 40.14 156.61 40.5773 156.888 41.132C157.165 41.676 157.304 42.2893 157.304 42.972C157.304 43.1533 157.298 43.3187 157.288 43.468C157.277 43.6173 157.261 43.7507 157.24 43.868H150.776V42.732H156.68L156.024 42.86C156.024 42.092 155.81 41.5 155.384 41.084C154.968 40.668 154.418 40.46 153.736 40.46C153.213 40.46 152.76 40.5827 152.376 40.828C152.002 41.0627 151.709 41.4093 151.496 41.868C151.293 42.316 151.192 42.86 151.192 43.5C151.192 44.1293 151.298 44.6733 151.512 45.132C151.725 45.5907 152.024 45.9427 152.408 46.188C152.802 46.4227 153.272 46.54 153.816 46.54C154.402 46.54 154.877 46.428 155.24 46.204C155.613 45.98 155.912 45.676 156.136 45.292L157.144 45.884C156.941 46.2467 156.68 46.5613 156.36 46.828C156.05 47.0947 155.682 47.3027 155.256 47.452C154.84 47.5907 154.37 47.66 153.848 47.66ZM162.858 47.66C162.197 47.66 161.589 47.4947 161.034 47.164C160.479 46.8333 160.037 46.3587 159.706 45.74C159.375 45.1107 159.21 44.364 159.21 43.5C159.21 42.6147 159.386 41.8627 159.738 41.244C160.09 40.6253 160.554 40.156 161.13 39.836C161.706 39.5053 162.325 39.34 162.986 39.34C163.647 39.34 164.218 39.5107 164.698 39.852C165.189 40.1933 165.514 40.6467 165.674 41.212L165.514 41.324V35.82H166.794V47.5H165.674L165.562 45.564L165.738 45.468C165.663 45.9373 165.482 46.3373 165.194 46.668C164.917 46.988 164.57 47.2333 164.154 47.404C163.749 47.5747 163.317 47.66 162.858 47.66ZM162.986 46.54C163.498 46.54 163.941 46.412 164.314 46.156C164.698 45.9 164.991 45.5373 165.194 45.068C165.407 44.588 165.514 44.028 165.514 43.388C165.514 42.78 165.407 42.2573 165.194 41.82C164.991 41.3827 164.703 41.0467 164.33 40.812C163.967 40.5773 163.541 40.46 163.05 40.46C162.239 40.46 161.61 40.7373 161.162 41.292C160.714 41.8467 160.49 42.5827 160.49 43.5C160.49 44.4173 160.709 45.1533 161.146 45.708C161.583 46.2627 162.197 46.54 162.986 46.54ZM170.409 45.58C170.719 45.58 170.969 45.676 171.161 45.868C171.353 46.06 171.449 46.3107 171.449 46.62C171.449 46.9293 171.353 47.18 171.161 47.372C170.969 47.564 170.719 47.66 170.409 47.66C170.1 47.66 169.849 47.564 169.657 47.372C169.465 47.18 169.369 46.9293 169.369 46.62C169.369 46.3107 169.465 46.06 169.657 45.868C169.849 45.676 170.1 45.58 170.409 45.58Z" fill="#3B3C4A"/>
</svg>
